<svg preserveAspectRatio="none" overflow="visible" style="display: block;" width="15" height="15" viewBox="0 0 15 15" fill="none" xmlns="http://www.w3.org/2000/svg">
<g id="DataIcon">
<path id="Vector" d="M7.5 6.2C10.5376 6.2 13 5.21503 13 4C13 2.78497 10.5376 1.8 7.5 1.8C4.46243 1.8 2 2.78497 2 4C2 5.21503 4.46243 6.2 7.5 6.2Z" stroke="#94A3B8" stroke-width="1.3"/>
<path id="Vector_2" d="M2 4V7.5C2 8.7 4.46 9.7 7.5 9.7C10.54 9.7 13 8.72 13 7.5V4" stroke="#94A3B8" stroke-width="1.3"/>
<path id="Vector_3" d="M2 7.5V11C2 12.2 4.46 13.2 7.5 13.2C10.54 13.2 13 12.22 13 11V7.5" stroke="#94A3B8" stroke-width="1.3"/>
</g>
</svg>
